<mxfile host="app.diagrams.net" modified="2024-06-06T21:07:50.013Z" agent="Mozilla/5.0 (Windows NT 10.0; Win64; x64) AppleWebKit/537.36 (KHTML, like Gecko) Chrome/123.0.0.0 Safari/537.36 OPR/109.0.0.0" etag="5HX5dqvbAS42e8YzQaz5" version="24.4.14" type="github">
  <diagram name="Page-1" id="c4acf3e9-155e-7222-9cf6-157b1a14988f">
    <mxGraphModel dx="1393" dy="789" grid="1" gridSize="10" guides="1" tooltips="1" connect="1" arrows="1" fold="1" page="1" pageScale="1" pageWidth="850" pageHeight="1100" background="none" math="0" shadow="0">
      <root>
        <mxCell id="0" />
        <mxCell id="1" parent="0" />
        <mxCell id="lYAlO0ip0e7YjrcwOvfQ-19" value="" style="edgeStyle=orthogonalEdgeStyle;rounded=0;orthogonalLoop=1;jettySize=auto;html=1;" edge="1" parent="1" source="lYAlO0ip0e7YjrcwOvfQ-10" target="lYAlO0ip0e7YjrcwOvfQ-18">
          <mxGeometry relative="1" as="geometry" />
        </mxCell>
        <mxCell id="lYAlO0ip0e7YjrcwOvfQ-10" value="Cadastrar como membro da sociedade científica" style="rounded=1;whiteSpace=wrap;html=1;verticalAlign=top;" vertex="1" parent="1">
          <mxGeometry x="160" y="180" width="120" height="60" as="geometry" />
        </mxCell>
        <mxCell id="lYAlO0ip0e7YjrcwOvfQ-14" style="edgeStyle=orthogonalEdgeStyle;rounded=0;orthogonalLoop=1;jettySize=auto;html=1;" edge="1" parent="1" source="lYAlO0ip0e7YjrcwOvfQ-13" target="lYAlO0ip0e7YjrcwOvfQ-10">
          <mxGeometry relative="1" as="geometry" />
        </mxCell>
        <mxCell id="lYAlO0ip0e7YjrcwOvfQ-17" value="" style="edgeStyle=orthogonalEdgeStyle;rounded=0;orthogonalLoop=1;jettySize=auto;html=1;" edge="1" parent="1" source="lYAlO0ip0e7YjrcwOvfQ-13" target="lYAlO0ip0e7YjrcwOvfQ-16">
          <mxGeometry relative="1" as="geometry" />
        </mxCell>
        <mxCell id="lYAlO0ip0e7YjrcwOvfQ-23" value="" style="edgeStyle=orthogonalEdgeStyle;rounded=0;orthogonalLoop=1;jettySize=auto;html=1;" edge="1" parent="1" source="lYAlO0ip0e7YjrcwOvfQ-13" target="lYAlO0ip0e7YjrcwOvfQ-22">
          <mxGeometry relative="1" as="geometry" />
        </mxCell>
        <mxCell id="lYAlO0ip0e7YjrcwOvfQ-13" value="Sociedade Científica" style="rounded=1;whiteSpace=wrap;html=1;" vertex="1" parent="1">
          <mxGeometry x="340" y="110" width="120" height="60" as="geometry" />
        </mxCell>
        <mxCell id="lYAlO0ip0e7YjrcwOvfQ-16" value="Cadastrar instituiçôes" style="whiteSpace=wrap;html=1;rounded=1;" vertex="1" parent="1">
          <mxGeometry x="520" y="180" width="120" height="60" as="geometry" />
        </mxCell>
        <mxCell id="lYAlO0ip0e7YjrcwOvfQ-21" value="" style="edgeStyle=orthogonalEdgeStyle;rounded=0;orthogonalLoop=1;jettySize=auto;html=1;" edge="1" parent="1" source="lYAlO0ip0e7YjrcwOvfQ-18" target="lYAlO0ip0e7YjrcwOvfQ-20">
          <mxGeometry relative="1" as="geometry" />
        </mxCell>
        <mxCell id="lYAlO0ip0e7YjrcwOvfQ-26" value="" style="edgeStyle=orthogonalEdgeStyle;rounded=0;orthogonalLoop=1;jettySize=auto;html=1;" edge="1" parent="1" source="lYAlO0ip0e7YjrcwOvfQ-18" target="lYAlO0ip0e7YjrcwOvfQ-22">
          <mxGeometry relative="1" as="geometry" />
        </mxCell>
        <mxCell id="lYAlO0ip0e7YjrcwOvfQ-18" value="&lt;div&gt;&lt;br&gt;&lt;/div&gt;Cadastrar eventos científicos" style="whiteSpace=wrap;html=1;verticalAlign=top;rounded=1;" vertex="1" parent="1">
          <mxGeometry x="160" y="320" width="120" height="60" as="geometry" />
        </mxCell>
        <mxCell id="lYAlO0ip0e7YjrcwOvfQ-20" value="Submissão de artigos" style="whiteSpace=wrap;html=1;verticalAlign=top;rounded=1;" vertex="1" parent="1">
          <mxGeometry x="160" y="460" width="120" height="60" as="geometry" />
        </mxCell>
        <mxCell id="lYAlO0ip0e7YjrcwOvfQ-25" value="" style="edgeStyle=orthogonalEdgeStyle;rounded=0;orthogonalLoop=1;jettySize=auto;html=1;" edge="1" parent="1" source="lYAlO0ip0e7YjrcwOvfQ-22" target="lYAlO0ip0e7YjrcwOvfQ-24">
          <mxGeometry relative="1" as="geometry">
            <Array as="points">
              <mxPoint x="400" y="480" />
              <mxPoint x="400" y="480" />
            </Array>
          </mxGeometry>
        </mxCell>
        <mxCell id="lYAlO0ip0e7YjrcwOvfQ-22" value="Coordenador" style="whiteSpace=wrap;html=1;rounded=1;" vertex="1" parent="1">
          <mxGeometry x="340" y="320" width="120" height="60" as="geometry" />
        </mxCell>
        <mxCell id="lYAlO0ip0e7YjrcwOvfQ-24" value="&amp;nbsp;definir o comitê de programa do evento" style="whiteSpace=wrap;html=1;rounded=1;" vertex="1" parent="1">
          <mxGeometry x="340" y="450" width="120" height="60" as="geometry" />
        </mxCell>
        <mxCell id="lYAlO0ip0e7YjrcwOvfQ-27" value="Selecionar membros da sociedade científica" style="whiteSpace=wrap;html=1;rounded=1;" vertex="1" parent="1">
          <mxGeometry x="240" y="560" width="120" height="60" as="geometry" />
        </mxCell>
        <mxCell id="lYAlO0ip0e7YjrcwOvfQ-29" value="&lt;div&gt;Registro de&amp;nbsp;&lt;/div&gt;&lt;div&gt;título&lt;/div&gt;" style="whiteSpace=wrap;html=1;verticalAlign=top;rounded=1;" vertex="1" parent="1">
          <mxGeometry x="10" y="550" width="120" height="60" as="geometry" />
        </mxCell>
        <mxCell id="lYAlO0ip0e7YjrcwOvfQ-32" value="Registro de&lt;div&gt;autores&lt;/div&gt;&lt;div&gt;&lt;br&gt;&lt;/div&gt;" style="whiteSpace=wrap;html=1;verticalAlign=top;rounded=1;" vertex="1" parent="1">
          <mxGeometry y="470" width="120" height="60" as="geometry" />
        </mxCell>
        <mxCell id="lYAlO0ip0e7YjrcwOvfQ-34" style="edgeStyle=orthogonalEdgeStyle;rounded=0;orthogonalLoop=1;jettySize=auto;html=1;exitX=0.5;exitY=1;exitDx=0;exitDy=0;" edge="1" parent="1" source="lYAlO0ip0e7YjrcwOvfQ-29" target="lYAlO0ip0e7YjrcwOvfQ-29">
          <mxGeometry relative="1" as="geometry" />
        </mxCell>
        <mxCell id="lYAlO0ip0e7YjrcwOvfQ-35" value="" style="endArrow=none;dashed=1;html=1;rounded=0;entryX=0;entryY=0.75;entryDx=0;entryDy=0;exitX=1;exitY=0.5;exitDx=0;exitDy=0;" edge="1" parent="1" source="lYAlO0ip0e7YjrcwOvfQ-32" target="lYAlO0ip0e7YjrcwOvfQ-20">
          <mxGeometry width="50" height="50" relative="1" as="geometry">
            <mxPoint x="80" y="490" as="sourcePoint" />
            <mxPoint x="130" y="440" as="targetPoint" />
          </mxGeometry>
        </mxCell>
        <mxCell id="lYAlO0ip0e7YjrcwOvfQ-36" value="" style="endArrow=none;dashed=1;html=1;rounded=0;entryX=0;entryY=1;entryDx=0;entryDy=0;" edge="1" parent="1" target="lYAlO0ip0e7YjrcwOvfQ-20">
          <mxGeometry width="50" height="50" relative="1" as="geometry">
            <mxPoint x="130" y="550" as="sourcePoint" />
            <mxPoint x="180" y="500" as="targetPoint" />
          </mxGeometry>
        </mxCell>
        <mxCell id="lYAlO0ip0e7YjrcwOvfQ-38" value="Registro de interesses" style="rounded=1;whiteSpace=wrap;html=1;" vertex="1" parent="1">
          <mxGeometry y="400" width="120" height="60" as="geometry" />
        </mxCell>
        <mxCell id="lYAlO0ip0e7YjrcwOvfQ-40" value="" style="endArrow=none;dashed=1;html=1;rounded=0;entryX=0;entryY=0.5;entryDx=0;entryDy=0;exitX=1.017;exitY=0.867;exitDx=0;exitDy=0;exitPerimeter=0;" edge="1" parent="1" source="lYAlO0ip0e7YjrcwOvfQ-38" target="lYAlO0ip0e7YjrcwOvfQ-20">
          <mxGeometry width="50" height="50" relative="1" as="geometry">
            <mxPoint x="120" y="430" as="sourcePoint" />
            <mxPoint x="170" y="380" as="targetPoint" />
            <Array as="points">
              <mxPoint x="140" y="460" />
            </Array>
          </mxGeometry>
        </mxCell>
        <mxCell id="lYAlO0ip0e7YjrcwOvfQ-42" value="" style="endArrow=none;dashed=1;html=1;rounded=0;" edge="1" parent="1">
          <mxGeometry width="50" height="50" relative="1" as="geometry">
            <mxPoint x="300" y="560" as="sourcePoint" />
            <mxPoint x="350" y="510" as="targetPoint" />
          </mxGeometry>
        </mxCell>
      </root>
    </mxGraphModel>
  </diagram>
</mxfile>
